# xmcd CD database file
#
# Track frame offsets:
#	150
#	12632
#	27881
#	41447
#	56188
#	70265
#	86676
#	99767
#	114059
#	131243
#	147778
#	161400
#	176328
#	190734
#	202529
#
# Disc length: 2997 seconds
#
# Revision: 0
# Processed by: cddbd v1.4PL0 Copyright (c) Steve Scherf et al.
# Submitted via: CdAid (MTCDDB.DLL V2003.01.23)
#
DISCID=bb0bb30f
DTITLE=CONWAY TWITTY - CONWAY TWITTY VOL 1
DYEAR=2000
DGENRE=Country
TTITLE0=HELLO DARLIN'
TTITLE1=FIFTEEN YEARS AGO
TTITLE2=SHE NEEDS SOMEONE TO HOLD HER WHEN SHE CRIES
TTITLE3=YOU'VE NEVER BEEN THIS FAR BEFORE
TTITLE4=LINDA ON MY MIND
TTITLE5=TOUCH THE HAND
TTITLE6=THIS TIME I'VE HURT HER MORE THAN SHE LOVES ME
TTITLE7=AFTER ALL THE GOOD IS GONE
TTITLE8=DON'T TAKE IT AWAY
TTITLE9=I'D LOVE TO LAY YOU DOWN
TTITLE10=TIGHT FITTIN' JEANS
TTITLE11=SLOW HAND
TTITLE12=I DON'T KNOW A THING ABOUT LOVE
TTITLE13=IT'S ONLY MAKE BELIEVE
TTITLE14=RED NECKIN LOVE MAKIN' NIGHT
EXTD=YEAR: 2000 IN THE STYLE OF - CONWAY TWITTY - VOL 1 - CDG - KARAOKE - CDG9
EXTD=0011 - CHARTBUSTER\nID3G: 17
EXTT0=
EXTT1=
EXTT2=
EXTT3=
EXTT4=
EXTT5=
EXTT6=
EXTT7=
EXTT8=
EXTT9=
EXTT10=
EXTT11=
EXTT12=
EXTT13=
EXTT14=
PLAYORDER=
